<svg width="16" height="16" viewBox="0 0 16 16" fill="none" xmlns="http://www.w3.org/2000/svg">
<path opacity="0.5" fill-rule="evenodd" clip-rule="evenodd" d="M2.28847 6.86279C2.28847 5.64937 2.7705 4.48566 3.62852 3.62764C4.48653 2.76963 5.65025 2.2876 6.86367 2.2876C8.07708 2.2876 9.2408 2.76963 10.0988 3.62764C10.9568 4.48566 11.4389 5.64937 11.4389 6.86279C11.4389 8.07621 10.9568 9.23993 10.0988 10.0979C9.2408 10.956 8.07708 11.438 6.86367 11.438C5.65025 11.438 4.48653 10.956 3.62852 10.0979C2.7705 9.23993 2.28847 8.07621 2.28847 6.86279ZM6.86367 1.29777e-07C5.78358 -0.000137702 4.71872 0.254658 3.75567 0.743665C2.79263 1.23267 1.9586 1.94208 1.32142 2.8142C0.684242 3.68631 0.261905 4.69651 0.088758 5.76262C-0.0843892 6.82874 -0.00345712 7.92067 0.324972 8.94961C0.653401 9.97855 1.22005 10.9154 1.97884 11.6841C2.73763 12.4527 3.66713 13.0314 4.69175 13.3731C5.71636 13.7148 6.80715 13.8098 7.87542 13.6505C8.94368 13.4911 9.95924 13.0818 10.8395 12.456L14.0616 15.678C14.2773 15.8864 14.5662 16.0017 14.8661 15.9991C15.166 15.9965 15.4529 15.8762 15.665 15.6641C15.8771 15.452 15.9974 15.1652 16 14.8653C16.0026 14.5654 15.8873 14.2764 15.6789 14.0607L12.458 10.8398C13.1881 9.81306 13.6214 8.6052 13.7106 7.34854C13.7998 6.09188 13.5413 4.83492 12.9635 3.7154C12.3857 2.59588 11.511 1.65701 10.435 1.00165C9.35906 0.346297 8.12349 -0.000244831 6.86367 1.29777e-07Z" fill="black"/>
</svg>
